<svg xmlns="http://www.w3.org/2000/svg" viewBox="0 0 360 780" width="360" height="780">
<rect width="360" height="780" fill="#A44732"/>
<g transform="translate(138.00 299.66)"><rect width="84" height="84" rx="28" fill="#FFFFFF" fill-opacity="0.14"/><g transform="translate(30.51 22.00) scale(0.032927 -0.032927) translate(-36.8 -1194.0)"><path fill="#FFFFFF" d="M126.8 849.6 81.2 863.0Q56.8 870.8 46.8 881.6Q36.8 892.4 36.8 907.2Q36.8 927.4 50.7 938.1Q64.6 948.8 87.6 948.8H148.2Q172.4 948.8 188.9 957.8Q205.4 966.8 222.6 990.8L329.6 1142.6Q350.6 1169.2 370.1 1181.6Q389.6 1194.0 409.2 1194.0Q430.6 1194.0 442.5 1180.4Q454.4 1166.8 454.4 1141.6V286.8Q454.4 216.6 481.8 179.8Q509.2 143.0 558.6 143.0Q595.8 143.0 616.3 157.6Q636.8 172.2 648.7 191.3Q660.6 210.4 672.2 225.0Q683.8 239.6 702.2 239.6Q717.4 239.6 726.0 229.4Q734.6 219.2 734.6 195.6Q734.6 138.6 697.6 89.3Q660.6 40.0 595.4 9.6Q530.2 -20.8 446.6 -20.8Q318.4 -20.8 245.2 43.7Q172.0 108.2 172.0 238.8V789.0Q172.0 815.2 161.7 828.2Q151.4 841.2 126.8 849.6ZM342.4 848.0V948.8H674.2Q698.4 948.8 711.9 939.1Q725.4 929.4 725.4 910.8Q725.4 884.0 698.8 866.0Q672.2 848.0 613.2 848.0Z"/></g></g>
<g transform="translate(145.32 399.66) scale(0.015000 -0.015000) translate(-36.8 -1486.8)"><path fill="#FFFFFF" d="M126.8 849.6 81.2 863.0Q56.8 870.8 46.8 881.6Q36.8 892.4 36.8 907.2Q36.8 927.4 50.7 938.1Q64.6 948.8 87.6 948.8H148.2Q172.4 948.8 188.9 957.8Q205.4 966.8 222.6 990.8L329.6 1142.6Q350.6 1169.2 370.1 1181.6Q389.6 1194.0 409.2 1194.0Q430.6 1194.0 442.5 1180.4Q454.4 1166.8 454.4 1141.6V286.8Q454.4 216.6 481.8 179.8Q509.2 143.0 558.6 143.0Q595.8 143.0 616.3 157.6Q636.8 172.2 648.7 191.3Q660.6 210.4 672.2 225.0Q683.8 239.6 702.2 239.6Q717.4 239.6 726.0 229.4Q734.6 219.2 734.6 195.6Q734.6 138.6 697.6 89.3Q660.6 40.0 595.4 9.6Q530.2 -20.8 446.6 -20.8Q318.4 -20.8 245.2 43.7Q172.0 108.2 172.0 238.8V789.0Q172.0 815.2 161.7 828.2Q151.4 841.2 126.8 849.6ZM342.4 848.0V948.8H674.2Q698.4 948.8 711.9 939.1Q725.4 929.4 725.4 910.8Q725.4 884.0 698.8 866.0Q672.2 848.0 613.2 848.0Z M1782.6 593.2Q1782.6 538.8 1751.6 509.5Q1720.6 480.2 1661.6 480.2H1037.4V558.2H1447.2Q1499.0 558.2 1499.0 605.0Q1499.0 735.8 1450.8 803.6Q1402.6 871.4 1321.8 871.4Q1259.2 871.4 1211.2 833.8Q1163.2 796.2 1135.9 725.5Q1108.6 654.8 1108.6 556.0Q1108.6 362.8 1199.6 266.1Q1290.6 169.4 1441.0 169.4Q1529.0 169.4 1595.6 204.0Q1662.2 238.6 1699.8 302.6Q1718.0 322.6 1728.8 329.8Q1739.6 337.0 1751.2 337.0Q1767.2 337.0 1774.5 322.4Q1781.8 307.8 1781.4 287.2Q1777.4 203.0 1721.5 131.7Q1665.6 60.4 1570.1 17.8Q1474.6 -24.8 1350.8 -24.8Q1205.8 -24.8 1093.4 34.7Q981.0 94.2 917.2 201.7Q853.4 309.2 853.4 453.4Q853.4 605.6 914.0 722.4Q974.6 839.2 1088.1 905.8Q1201.6 972.4 1359.2 972.4Q1493.0 972.4 1587.8 923.8Q1682.6 875.2 1732.6 789.8Q1782.6 704.4 1782.6 593.2Z M1985.0 0.0Q1956.2 0.0 1944.6 11.4Q1933.0 22.8 1933.0 42.4Q1933.0 57.6 1942.0 68.4Q1951.0 79.2 1970.4 86.0L2009.2 96.4Q2027.4 102.6 2036.2 116.9Q2045.0 131.2 2045.0 162.8V1251.6Q2045.0 1277.6 2037.1 1288.9Q2029.2 1300.2 2011.8 1303.2L1959.4 1307.4Q1940.8 1311.6 1932.7 1320.8Q1924.6 1330.0 1924.6 1344.4Q1924.6 1361.2 1934.6 1371.6Q1944.6 1382.0 1971.8 1392.0L2155.4 1459.6Q2193.6 1474.0 2217.5 1480.4Q2241.4 1486.8 2262.2 1486.8Q2294.4 1486.8 2310.9 1468.9Q2327.4 1451.0 2327.4 1421.6V163.2Q2327.4 131.6 2336.2 117.2Q2345.0 102.8 2363.2 96.4L2399.2 85.8Q2431.4 72.4 2431.4 44.8Q2431.4 0.0 2374.4 0.0ZM2241.2 436.4 2652.8 769.6Q2686.8 797.0 2683.8 821.2Q2680.8 845.4 2642.2 856.6L2606.8 865.6Q2587.6 871.8 2580.5 881.3Q2573.4 890.8 2573.4 906.4Q2573.4 926.4 2587.9 937.6Q2602.4 948.8 2627.4 948.8H2977.0Q3002.2 948.8 3016.7 937.7Q3031.2 926.6 3031.2 907.8Q3031.2 889.0 3019.3 876.5Q3007.4 864.0 2968.6 854.8Q2918.0 843.4 2879.0 822.2Q2840.0 801.0 2779.8 752.8L2272.8 350.0ZM2590.2 674.2 2947.0 161.2Q2971.0 128.2 2988.9 114.6Q3006.8 101.0 3040.0 90.4Q3061.4 80.0 3072.1 67.5Q3082.8 55.0 3082.8 39.8Q3082.8 21.6 3068.3 10.8Q3053.8 0.0 3029.2 0.0H2622.0Q2599.4 0.0 2586.1 11.4Q2572.8 22.8 2572.8 41.8Q2572.8 55.2 2579.6 64.3Q2586.4 73.4 2603.2 80.2L2635.0 89.2Q2662.6 96.6 2664.5 113.3Q2666.4 130.0 2638.6 169.6L2401.8 509.4Z M3565.4 902.0V163.2Q3565.4 131.6 3574.2 116.9Q3583.0 102.2 3601.2 96.4L3638.4 86.4Q3658.2 79.6 3667.4 68.8Q3676.6 58.0 3676.6 42.4Q3676.6 22.8 3663.0 11.4Q3649.4 0.0 3620.2 0.0H3226.6Q3197.8 0.0 3184.4 11.4Q3171.0 22.8 3171.0 42.4Q3171.0 57.6 3180.0 68.4Q3189.0 79.2 3208.4 86.0L3247.2 96.4Q3265.4 102.6 3274.2 116.9Q3283.0 131.2 3283.0 162.8V732.0Q3283.0 758.0 3275.1 769.3Q3267.2 780.6 3249.8 783.6L3197.4 787.8Q3178.8 792.0 3170.7 801.2Q3162.6 810.4 3162.6 824.8Q3162.6 841.6 3172.6 852.0Q3182.6 862.4 3209.8 872.4L3393.4 940.0Q3433.4 955.0 3457.0 961.1Q3480.6 967.2 3497.8 967.2Q3531.8 967.2 3548.6 949.3Q3565.4 931.4 3565.4 902.0ZM3401.8 1120.8Q3321.0 1120.8 3272.4 1162.0Q3223.8 1203.2 3223.8 1270.8Q3223.8 1338.2 3272.4 1378.6Q3321.0 1419.0 3401.8 1419.0Q3483.0 1419.0 3531.8 1378.4Q3580.6 1337.8 3580.6 1270.8Q3580.6 1203.2 3531.8 1162.0Q3483.0 1120.8 3401.8 1120.8Z M4166.8 530.4Q4166.8 676.2 4208.2 774.7Q4249.6 873.2 4316.7 922.8Q4383.8 972.4 4460.8 972.4Q4556.8 972.4 4609.1 917.9Q4661.4 863.4 4661.4 761.8Q4661.4 672.0 4624.3 627.6Q4587.2 583.2 4528.0 583.2Q4468.2 583.2 4436.7 615.3Q4405.2 647.4 4405.2 704.4V741.2Q4404.6 772.4 4390.5 787.9Q4376.4 803.4 4344.8 803.4Q4309.2 803.4 4276.7 774.7Q4244.2 746.0 4223.8 687.1Q4203.4 628.2 4203.4 536.0ZM4186.6 902.0 4203.4 677.8V163.2Q4203.4 134.6 4214.6 120.9Q4225.8 107.2 4256.6 102.2L4341.8 88.8Q4365.8 84.8 4377.4 73.8Q4389.0 62.8 4389.0 43.0Q4389.0 22.8 4374.5 11.4Q4360.0 0.0 4332.0 0.0H3864.6Q3835.8 0.0 3822.4 11.4Q3809.0 22.8 3809.0 42.4Q3809.0 57.6 3818.0 68.4Q3827.0 79.2 3846.4 86.0L3885.2 96.4Q3903.4 102.2 3912.2 116.7Q3921.0 131.2 3921.0 162.8V729.6Q3921.0 755.6 3913.1 766.9Q3905.2 778.2 3887.8 781.2L3835.4 785.4Q3816.8 789.6 3808.7 798.8Q3800.6 808.0 3800.6 822.4Q3800.6 839.2 3810.9 849.9Q3821.2 860.6 3847.8 870.0L4027.2 936.4Q4077.4 955.6 4100.8 961.4Q4124.2 967.2 4137.6 967.2Q4159.6 967.2 4171.0 952.3Q4182.4 937.4 4186.6 902.0Z"/></g>
<g fill-opacity="0.82"><g transform="translate(62.21 441.20) scale(0.014000 -0.014000) translate(-88.0 -876.0)"><path fill="#FFFFFF" d="M188.0 660.0V0.0H108.0V660.0ZM148.0 876.0Q175.0 876.0 191.5 859.5Q208.0 843.0 208.0 816.0Q208.0 789.0 191.5 772.5Q175.0 756.0 148.0 756.0Q121.0 756.0 104.5 772.5Q88.0 789.0 88.0 816.0Q88.0 843.0 104.5 859.5Q121.0 876.0 148.0 876.0Z M560.0 -10.0Q487.0 -10.0 425.5 21.0Q364.0 52.0 331.0 109.0L399.0 158.0Q421.0 112.0 463.5 86.0Q506.0 60.0 566.0 60.0Q619.0 60.0 649.0 80.5Q679.0 101.0 679.0 134.0Q679.0 155.0 665.5 172.5Q652.0 190.0 614.0 198.0L494.0 223.0Q421.0 238.0 389.5 273.0Q358.0 308.0 358.0 360.0Q358.0 401.0 381.5 435.0Q405.0 469.0 448.5 489.5Q492.0 510.0 551.0 510.0Q625.0 510.0 676.0 481.0Q727.0 452.0 752.0 399.0L685.0 355.0Q668.0 399.0 630.0 419.5Q592.0 440.0 551.0 440.0Q515.0 440.0 489.5 430.0Q464.0 420.0 450.5 402.5Q437.0 385.0 437.0 363.0Q437.0 341.0 452.0 322.5Q467.0 304.0 508.0 296.0L633.0 270.0Q703.0 256.0 731.0 224.0Q759.0 192.0 759.0 146.0Q759.0 99.0 734.0 63.5Q709.0 28.0 664.0 9.0Q619.0 -10.0 560.0 -10.0Z M1025.0 642.0V138.0Q1025.0 101.0 1046.0 83.0Q1067.0 65.0 1100.0 65.0Q1129.0 65.0 1150.0 75.0Q1171.0 85.0 1188.0 102.0L1216.0 35.0Q1193.0 14.0 1161.5 2.0Q1130.0 -10.0 1089.0 -10.0Q1051.0 -10.0 1018.0 3.5Q985.0 17.0 965.5 46.5Q946.0 76.0 945.0 124.0V620.0ZM1207.0 500.0V431.0H845.0V500.0Z M1618.0 323.0Q1618.0 379.0 1588.0 409.5Q1558.0 440.0 1503.0 440.0Q1451.0 440.0 1415.0 417.5Q1379.0 395.0 1362.0 345.0L1297.0 385.0Q1317.0 441.0 1371.0 475.5Q1425.0 510.0 1505.0 510.0Q1559.0 510.0 1603.0 491.5Q1647.0 473.0 1672.5 435.5Q1698.0 398.0 1698.0 339.0V97.0Q1698.0 61.0 1736.0 61.0Q1755.0 61.0 1773.0 66.0L1769.0 3.0Q1749.0 -7.0 1717.0 -7.0Q1688.0 -7.0 1665.0 4.0Q1642.0 15.0 1629.0 37.5Q1616.0 60.0 1616.0 94.0V104.0L1636.0 101.0Q1624.0 62.0 1595.0 37.5Q1566.0 13.0 1530.0 1.5Q1494.0 -10.0 1459.0 -10.0Q1415.0 -10.0 1377.0 5.0Q1339.0 20.0 1316.5 50.5Q1294.0 81.0 1294.0 126.0Q1294.0 182.0 1331.5 218.5Q1369.0 255.0 1436.0 268.0L1634.0 307.0V241.0L1473.0 208.0Q1424.0 198.0 1400.0 180.0Q1376.0 162.0 1376.0 130.0Q1376.0 99.0 1400.5 79.5Q1425.0 60.0 1470.0 60.0Q1499.0 60.0 1525.5 67.5Q1552.0 75.0 1573.0 90.5Q1594.0 106.0 1606.0 129.5Q1618.0 153.0 1618.0 185.0Z M1892.0 0.0V500.0H1962.0L1969.0 388.0L1956.0 399.0Q1972.0 439.0 1999.0 463.5Q2026.0 488.0 2061.5 499.0Q2097.0 510.0 2135.0 510.0Q2189.0 510.0 2233.0 489.5Q2277.0 469.0 2303.5 427.0Q2330.0 385.0 2330.0 320.0V0.0H2250.0V292.0Q2250.0 375.0 2214.5 407.5Q2179.0 440.0 2127.0 440.0Q2091.0 440.0 2055.0 423.0Q2019.0 406.0 1995.5 368.0Q1972.0 330.0 1972.0 266.0V0.0Z M2756.0 -10.0Q2714.0 -10.0 2678.0 5.0Q2642.0 20.0 2616.0 47.0Q2590.0 74.0 2577.0 108.0L2588.0 122.0L2581.0 0.0H2511.0V730.0H2591.0V387.0L2581.0 402.0Q2601.0 449.0 2648.5 479.5Q2696.0 510.0 2757.0 510.0Q2819.0 510.0 2871.0 479.0Q2923.0 448.0 2954.0 390.0Q2985.0 332.0 2985.0 250.0Q2985.0 169.0 2953.5 110.5Q2922.0 52.0 2870.0 21.0Q2818.0 -10.0 2756.0 -10.0ZM2748.0 60.0Q2822.0 60.0 2863.5 112.0Q2905.0 164.0 2905.0 250.0Q2905.0 336.0 2864.0 388.0Q2823.0 440.0 2749.0 440.0Q2702.0 440.0 2666.5 416.0Q2631.0 392.0 2611.0 349.0Q2591.0 306.0 2591.0 248.0Q2591.0 191.0 2610.5 148.5Q2630.0 106.0 2665.5 83.0Q2701.0 60.0 2748.0 60.0Z M3319.0 -10.0Q3271.0 -10.0 3228.5 8.0Q3186.0 26.0 3159.5 66.5Q3133.0 107.0 3133.0 172.0V500.0H3213.0V193.0Q3213.0 117.0 3246.0 88.5Q3279.0 60.0 3339.0 60.0Q3367.0 60.0 3394.0 69.5Q3421.0 79.0 3442.5 99.5Q3464.0 120.0 3476.5 152.0Q3489.0 184.0 3489.0 228.0V500.0H3569.0V0.0H3499.0L3494.0 76.0Q3468.0 31.0 3423.5 10.5Q3379.0 -10.0 3319.0 -10.0Z M3831.0 730.0V127.0Q3831.0 89.0 3845.0 74.5Q3859.0 60.0 3890.0 60.0Q3910.0 60.0 3923.0 63.0Q3936.0 66.0 3958.0 74.0L3945.0 4.0Q3929.0 -3.0 3910.0 -6.5Q3891.0 -10.0 3871.0 -10.0Q3810.0 -10.0 3780.5 23.0Q3751.0 56.0 3751.0 124.0V730.0Z M4115.0 690.0 4089.0 443.0H4027.0V690.0Z M4453.0 -10.0Q4405.0 -10.0 4362.5 8.0Q4320.0 26.0 4293.5 66.5Q4267.0 107.0 4267.0 172.0V500.0H4347.0V193.0Q4347.0 117.0 4380.0 88.5Q4413.0 60.0 4473.0 60.0Q4501.0 60.0 4528.0 69.5Q4555.0 79.0 4576.5 99.5Q4598.0 120.0 4610.5 152.0Q4623.0 184.0 4623.0 228.0V500.0H4703.0V0.0H4633.0L4628.0 76.0Q4602.0 31.0 4557.5 10.5Q4513.0 -10.0 4453.0 -10.0Z M4889.0 0.0V500.0H4959.0L4966.0 388.0L4953.0 399.0Q4969.0 439.0 4996.0 463.5Q5023.0 488.0 5058.5 499.0Q5094.0 510.0 5132.0 510.0Q5186.0 510.0 5230.0 489.5Q5274.0 469.0 5300.5 427.0Q5327.0 385.0 5327.0 320.0V0.0H5247.0V292.0Q5247.0 375.0 5211.5 407.5Q5176.0 440.0 5124.0 440.0Q5088.0 440.0 5052.0 423.0Q5016.0 406.0 4992.5 368.0Q4969.0 330.0 4969.0 266.0V0.0Z M6029.0 -10.0Q5956.0 -10.0 5894.5 21.0Q5833.0 52.0 5800.0 109.0L5868.0 158.0Q5890.0 112.0 5932.5 86.0Q5975.0 60.0 6035.0 60.0Q6088.0 60.0 6118.0 80.5Q6148.0 101.0 6148.0 134.0Q6148.0 155.0 6134.5 172.5Q6121.0 190.0 6083.0 198.0L5963.0 223.0Q5890.0 238.0 5858.5 273.0Q5827.0 308.0 5827.0 360.0Q5827.0 401.0 5850.5 435.0Q5874.0 469.0 5917.5 489.5Q5961.0 510.0 6020.0 510.0Q6094.0 510.0 6145.0 481.0Q6196.0 452.0 6221.0 399.0L6154.0 355.0Q6137.0 399.0 6099.0 419.5Q6061.0 440.0 6020.0 440.0Q5984.0 440.0 5958.5 430.0Q5933.0 420.0 5919.5 402.5Q5906.0 385.0 5906.0 363.0Q5906.0 341.0 5921.0 322.5Q5936.0 304.0 5977.0 296.0L6102.0 270.0Q6172.0 256.0 6200.0 224.0Q6228.0 192.0 6228.0 146.0Q6228.0 99.0 6203.0 63.5Q6178.0 28.0 6133.0 9.0Q6088.0 -10.0 6029.0 -10.0Z M6583.0 510.0Q6654.0 510.0 6708.5 479.0Q6763.0 448.0 6794.0 389.5Q6825.0 331.0 6825.0 250.0Q6825.0 169.0 6794.0 110.5Q6763.0 52.0 6708.5 21.0Q6654.0 -10.0 6583.0 -10.0Q6513.0 -10.0 6458.0 21.0Q6403.0 52.0 6372.0 110.5Q6341.0 169.0 6341.0 250.0Q6341.0 331.0 6372.0 389.5Q6403.0 448.0 6458.0 479.0Q6513.0 510.0 6583.0 510.0ZM6583.0 441.0Q6532.0 441.0 6496.0 418.0Q6460.0 395.0 6440.5 352.5Q6421.0 310.0 6421.0 250.0Q6421.0 191.0 6440.5 148.0Q6460.0 105.0 6496.0 82.0Q6532.0 59.0 6583.0 59.0Q6634.0 59.0 6670.0 82.0Q6706.0 105.0 6725.5 148.0Q6745.0 191.0 6745.0 250.0Q6745.0 310.0 6725.5 352.5Q6706.0 395.0 6670.0 418.0Q6634.0 441.0 6583.0 441.0Z M7415.0 500.0 7199.0 284.0 7180.0 265.0 7016.0 101.0V201.0L7314.0 500.0ZM7056.0 730.0V0.0H6976.0V730.0ZM7206.0 325.0 7427.0 0.0H7330.0L7139.0 280.0Z M7825.0 323.0Q7825.0 379.0 7795.0 409.5Q7765.0 440.0 7710.0 440.0Q7658.0 440.0 7622.0 417.5Q7586.0 395.0 7569.0 345.0L7504.0 385.0Q7524.0 441.0 7578.0 475.5Q7632.0 510.0 7712.0 510.0Q7766.0 510.0 7810.0 491.5Q7854.0 473.0 7879.5 435.5Q7905.0 398.0 7905.0 339.0V97.0Q7905.0 61.0 7943.0 61.0Q7962.0 61.0 7980.0 66.0L7976.0 3.0Q7956.0 -7.0 7924.0 -7.0Q7895.0 -7.0 7872.0 4.0Q7849.0 15.0 7836.0 37.5Q7823.0 60.0 7823.0 94.0V104.0L7843.0 101.0Q7831.0 62.0 7802.0 37.5Q7773.0 13.0 7737.0 1.5Q7701.0 -10.0 7666.0 -10.0Q7622.0 -10.0 7584.0 5.0Q7546.0 20.0 7523.5 50.5Q7501.0 81.0 7501.0 126.0Q7501.0 182.0 7538.5 218.5Q7576.0 255.0 7643.0 268.0L7841.0 307.0V241.0L7680.0 208.0Q7631.0 198.0 7607.0 180.0Q7583.0 162.0 7583.0 130.0Q7583.0 99.0 7607.5 79.5Q7632.0 60.0 7677.0 60.0Q7706.0 60.0 7732.5 67.5Q7759.0 75.0 7780.0 90.5Q7801.0 106.0 7813.0 129.5Q7825.0 153.0 7825.0 185.0Z M8538.0 500.0 8322.0 284.0 8303.0 265.0 8139.0 101.0V201.0L8437.0 500.0ZM8179.0 730.0V0.0H8099.0V730.0ZM8329.0 325.0 8550.0 0.0H8453.0L8262.0 280.0Z M9424.0 500.0 9208.0 284.0 9189.0 265.0 9025.0 101.0V201.0L9323.0 500.0ZM9065.0 730.0V0.0H8985.0V730.0ZM9215.0 325.0 9436.0 0.0H9339.0L9148.0 280.0Z M9743.0 -10.0Q9672.0 -10.0 9616.5 21.0Q9561.0 52.0 9530.0 110.5Q9499.0 169.0 9499.0 250.0Q9499.0 331.0 9530.0 389.5Q9561.0 448.0 9615.0 479.0Q9669.0 510.0 9738.0 510.0Q9808.0 510.0 9857.5 480.0Q9907.0 450.0 9933.0 398.5Q9959.0 347.0 9959.0 283.0Q9959.0 266.0 9958.0 252.0Q9957.0 238.0 9955.0 227.0H9551.0V298.0H9920.0L9879.0 290.0Q9879.0 362.0 9839.5 401.0Q9800.0 440.0 9736.0 440.0Q9687.0 440.0 9651.5 417.5Q9616.0 395.0 9596.5 352.5Q9577.0 310.0 9577.0 250.0Q9577.0 191.0 9597.0 148.0Q9617.0 105.0 9653.5 82.5Q9690.0 60.0 9741.0 60.0Q9796.0 60.0 9830.5 81.0Q9865.0 102.0 9886.0 138.0L9949.0 101.0Q9930.0 67.0 9900.5 42.0Q9871.0 17.0 9831.5 3.5Q9792.0 -10.0 9743.0 -10.0Z M10306.0 -10.0Q10244.0 -10.0 10192.0 21.0Q10140.0 52.0 10109.0 110.5Q10078.0 169.0 10078.0 250.0Q10078.0 333.0 10111.0 391.0Q10144.0 449.0 10198.0 479.5Q10252.0 510.0 10314.0 510.0Q10376.0 510.0 10421.5 478.0Q10467.0 446.0 10482.0 393.0L10472.0 386.0V730.0H10552.0V0.0H10482.0L10475.0 121.0L10486.0 127.0Q10479.0 83.0 10452.5 52.5Q10426.0 22.0 10387.5 6.0Q10349.0 -10.0 10306.0 -10.0ZM10314.0 60.0Q10362.0 60.0 10397.5 84.0Q10433.0 108.0 10452.5 152.5Q10472.0 197.0 10472.0 257.0Q10472.0 314.0 10452.5 355.0Q10433.0 396.0 10398.5 418.0Q10364.0 440.0 10318.0 440.0Q10242.0 440.0 10200.0 388.0Q10158.0 336.0 10158.0 250.0Q10158.0 164.0 10199.0 112.0Q10240.0 60.0 10314.0 60.0Z M10778.0 596.0Q10751.0 596.0 10734.5 612.5Q10718.0 629.0 10718.0 656.0Q10718.0 683.0 10734.5 699.5Q10751.0 716.0 10778.0 716.0Q10805.0 716.0 10821.5 699.5Q10838.0 683.0 10838.0 656.0Q10838.0 629.0 10821.5 612.5Q10805.0 596.0 10778.0 596.0ZM10818.0 500.0V0.0H10738.0V500.0Z M11080.0 730.0V127.0Q11080.0 89.0 11094.0 74.5Q11108.0 60.0 11139.0 60.0Q11159.0 60.0 11172.0 63.0Q11185.0 66.0 11207.0 74.0L11194.0 4.0Q11178.0 -3.0 11159.0 -6.5Q11140.0 -10.0 11120.0 -10.0Q11059.0 -10.0 11029.5 23.0Q11000.0 56.0 11000.0 124.0V730.0Z M11519.0 -10.0Q11448.0 -10.0 11392.5 21.0Q11337.0 52.0 11306.0 110.5Q11275.0 169.0 11275.0 250.0Q11275.0 331.0 11306.0 389.5Q11337.0 448.0 11391.0 479.0Q11445.0 510.0 11514.0 510.0Q11584.0 510.0 11633.5 480.0Q11683.0 450.0 11709.0 398.5Q11735.0 347.0 11735.0 283.0Q11735.0 266.0 11734.0 252.0Q11733.0 238.0 11731.0 227.0H11327.0V298.0H11696.0L11655.0 290.0Q11655.0 362.0 11615.5 401.0Q11576.0 440.0 11512.0 440.0Q11463.0 440.0 11427.5 417.5Q11392.0 395.0 11372.5 352.5Q11353.0 310.0 11353.0 250.0Q11353.0 191.0 11373.0 148.0Q11393.0 105.0 11429.5 82.5Q11466.0 60.0 11517.0 60.0Q11572.0 60.0 11606.5 81.0Q11641.0 102.0 11662.0 138.0L11725.0 101.0Q11706.0 67.0 11676.5 42.0Q11647.0 17.0 11607.5 3.5Q11568.0 -10.0 11519.0 -10.0Z M11887.0 0.0V500.0H11952.0L11963.0 418.0Q11984.0 464.0 12024.5 487.0Q12065.0 510.0 12123.0 510.0Q12136.0 510.0 12151.5 508.0Q12167.0 506.0 12178.0 500.0L12164.0 427.0Q12153.0 431.0 12140.0 433.0Q12127.0 435.0 12103.0 435.0Q12072.0 435.0 12040.5 417.0Q12009.0 399.0 11988.0 362.5Q11967.0 326.0 11967.0 270.0V0.0Z M12335.0 596.0Q12308.0 596.0 12291.5 612.5Q12275.0 629.0 12275.0 656.0Q12275.0 683.0 12291.5 699.5Q12308.0 716.0 12335.0 716.0Q12362.0 716.0 12378.5 699.5Q12395.0 683.0 12395.0 656.0Q12395.0 629.0 12378.5 612.5Q12362.0 596.0 12335.0 596.0ZM12375.0 500.0V0.0H12295.0V500.0Z M12561.0 0.0V500.0H12631.0L12638.0 388.0L12625.0 399.0Q12641.0 439.0 12668.0 463.5Q12695.0 488.0 12730.5 499.0Q12766.0 510.0 12804.0 510.0Q12858.0 510.0 12902.0 489.5Q12946.0 469.0 12972.5 427.0Q12999.0 385.0 12999.0 320.0V0.0H12919.0V292.0Q12919.0 375.0 12883.5 407.5Q12848.0 440.0 12796.0 440.0Q12760.0 440.0 12724.0 423.0Q12688.0 406.0 12664.5 368.0Q12641.0 330.0 12641.0 266.0V0.0Z M13220.0 596.0Q13193.0 596.0 13176.5 612.5Q13160.0 629.0 13160.0 656.0Q13160.0 683.0 13176.5 699.5Q13193.0 716.0 13220.0 716.0Q13247.0 716.0 13263.5 699.5Q13280.0 683.0 13280.0 656.0Q13280.0 629.0 13263.5 612.5Q13247.0 596.0 13220.0 596.0ZM13260.0 500.0V0.0H13180.0V500.0Z M14226.0 500.0 14010.0 284.0 13991.0 265.0 13827.0 101.0V201.0L14125.0 500.0ZM13867.0 730.0V0.0H13787.0V730.0ZM14017.0 325.0 14238.0 0.0H14141.0L13950.0 280.0Z M14545.0 -10.0Q14474.0 -10.0 14418.5 21.0Q14363.0 52.0 14332.0 110.5Q14301.0 169.0 14301.0 250.0Q14301.0 331.0 14332.0 389.5Q14363.0 448.0 14417.0 479.0Q14471.0 510.0 14540.0 510.0Q14610.0 510.0 14659.5 480.0Q14709.0 450.0 14735.0 398.5Q14761.0 347.0 14761.0 283.0Q14761.0 266.0 14760.0 252.0Q14759.0 238.0 14757.0 227.0H14353.0V298.0H14722.0L14681.0 290.0Q14681.0 362.0 14641.5 401.0Q14602.0 440.0 14538.0 440.0Q14489.0 440.0 14453.5 417.5Q14418.0 395.0 14398.5 352.5Q14379.0 310.0 14379.0 250.0Q14379.0 191.0 14399.0 148.0Q14419.0 105.0 14455.5 82.5Q14492.0 60.0 14543.0 60.0Q14598.0 60.0 14632.5 81.0Q14667.0 102.0 14688.0 138.0L14751.0 101.0Q14732.0 67.0 14702.5 42.0Q14673.0 17.0 14633.5 3.5Q14594.0 -10.0 14545.0 -10.0Z M15093.0 -10.0Q15020.0 -10.0 14958.5 21.0Q14897.0 52.0 14864.0 109.0L14932.0 158.0Q14954.0 112.0 14996.5 86.0Q15039.0 60.0 15099.0 60.0Q15152.0 60.0 15182.0 80.5Q15212.0 101.0 15212.0 134.0Q15212.0 155.0 15198.5 172.5Q15185.0 190.0 15147.0 198.0L15027.0 223.0Q14954.0 238.0 14922.5 273.0Q14891.0 308.0 14891.0 360.0Q14891.0 401.0 14914.5 435.0Q14938.0 469.0 14981.5 489.5Q15025.0 510.0 15084.0 510.0Q15158.0 510.0 15209.0 481.0Q15260.0 452.0 15285.0 399.0L15218.0 355.0Q15201.0 399.0 15163.0 419.5Q15125.0 440.0 15084.0 440.0Q15048.0 440.0 15022.5 430.0Q14997.0 420.0 14983.5 402.5Q14970.0 385.0 14970.0 363.0Q14970.0 341.0 14985.0 322.5Q15000.0 304.0 15041.0 296.0L15166.0 270.0Q15236.0 256.0 15264.0 224.0Q15292.0 192.0 15292.0 146.0Q15292.0 99.0 15267.0 63.5Q15242.0 28.0 15197.0 9.0Q15152.0 -10.0 15093.0 -10.0ZM15034.0 4.0 15076.0 29.0Q15135.0 10.0 15160.0 -22.5Q15185.0 -55.0 15185.0 -99.0Q15185.0 -147.0 15151.0 -181.0Q15117.0 -215.0 15064.0 -215.0Q15033.0 -215.0 15009.5 -207.0Q14986.0 -199.0 14969.0 -186.0L14988.0 -128.0Q15002.0 -137.0 15017.5 -144.0Q15033.0 -151.0 15055.0 -151.0Q15083.0 -151.0 15101.0 -133.0Q15119.0 -115.0 15119.0 -81.0Q15119.0 -55.0 15100.0 -36.0Q15081.0 -17.0 15034.0 4.0Z M15643.0 735.0Q15669.0 735.0 15692.0 729.0Q15715.0 723.0 15728.0 712.0L15707.0 647.0Q15695.0 655.0 15681.0 658.5Q15667.0 662.0 15650.0 662.0Q15607.0 662.0 15583.0 641.5Q15559.0 621.0 15559.0 576.0V500.0V474.0V0.0H15479.0V584.0Q15479.0 617.0 15489.0 645.0Q15499.0 673.0 15519.5 693.0Q15540.0 713.0 15571.0 724.0Q15602.0 735.0 15643.0 735.0ZM15726.0 500.0V431.0H15379.0V500.0Z M16028.0 -10.0Q15957.0 -10.0 15901.5 21.0Q15846.0 52.0 15815.0 110.5Q15784.0 169.0 15784.0 250.0Q15784.0 331.0 15815.0 389.5Q15846.0 448.0 15900.0 479.0Q15954.0 510.0 16023.0 510.0Q16093.0 510.0 16142.5 480.0Q16192.0 450.0 16218.0 398.5Q16244.0 347.0 16244.0 283.0Q16244.0 266.0 16243.0 252.0Q16242.0 238.0 16240.0 227.0H15836.0V298.0H16205.0L16164.0 290.0Q16164.0 362.0 16124.5 401.0Q16085.0 440.0 16021.0 440.0Q15972.0 440.0 15936.5 417.5Q15901.0 395.0 15881.5 352.5Q15862.0 310.0 15862.0 250.0Q15862.0 191.0 15882.0 148.0Q15902.0 105.0 15938.5 82.5Q15975.0 60.0 16026.0 60.0Q16081.0 60.0 16115.5 81.0Q16150.0 102.0 16171.0 138.0L16234.0 101.0Q16215.0 67.0 16185.5 42.0Q16156.0 17.0 16116.5 3.5Q16077.0 -10.0 16028.0 -10.0Z M16499.0 642.0V138.0Q16499.0 101.0 16520.0 83.0Q16541.0 65.0 16574.0 65.0Q16603.0 65.0 16624.0 75.0Q16645.0 85.0 16662.0 102.0L16690.0 35.0Q16667.0 14.0 16635.5 2.0Q16604.0 -10.0 16563.0 -10.0Q16525.0 -10.0 16492.0 3.5Q16459.0 17.0 16439.5 46.5Q16420.0 76.0 16419.0 124.0V620.0ZM16681.0 500.0V431.0H16319.0V500.0Z M16840.0 120.0Q16864.0 120.0 16880.5 107.5Q16897.0 95.0 16906.0 73.5Q16915.0 52.0 16915.0 23.0Q16915.0 -10.0 16903.5 -42.0Q16892.0 -74.0 16868.0 -101.0Q16844.0 -128.0 16806.0 -146.0L16764.0 -107.0Q16791.0 -98.0 16811.5 -82.0Q16832.0 -66.0 16845.0 -46.0Q16858.0 -26.0 16862.0 -5.0L16858.0 -3.0Q16854.0 -6.0 16848.0 -8.0Q16842.0 -10.0 16830.0 -10.0Q16818.0 -10.0 16805.5 -3.0Q16793.0 4.0 16784.0 17.5Q16775.0 31.0 16775.0 53.0Q16775.0 71.0 16784.0 86.5Q16793.0 102.0 16807.5 111.0Q16822.0 120.0 16840.0 120.0Z"/></g></g>
<g fill-opacity="0.82"><g transform="translate(114.51 463.22) scale(0.014000 -0.014000) translate(-58.0 -730.0)"><path fill="#FFFFFF" d="M300.0 510.0Q371.0 510.0 425.5 479.0Q480.0 448.0 511.0 389.5Q542.0 331.0 542.0 250.0Q542.0 169.0 511.0 110.5Q480.0 52.0 425.5 21.0Q371.0 -10.0 300.0 -10.0Q230.0 -10.0 175.0 21.0Q120.0 52.0 89.0 110.5Q58.0 169.0 58.0 250.0Q58.0 331.0 89.0 389.5Q120.0 448.0 175.0 479.0Q230.0 510.0 300.0 510.0ZM300.0 441.0Q249.0 441.0 213.0 418.0Q177.0 395.0 157.5 352.5Q138.0 310.0 138.0 250.0Q138.0 191.0 157.5 148.0Q177.0 105.0 213.0 82.0Q249.0 59.0 300.0 59.0Q351.0 59.0 387.0 82.0Q423.0 105.0 442.5 148.0Q462.0 191.0 462.0 250.0Q462.0 310.0 442.5 352.5Q423.0 395.0 387.0 418.0Q351.0 441.0 300.0 441.0Z M693.0 0.0V500.0H763.0L770.0 388.0L757.0 399.0Q773.0 439.0 800.0 463.5Q827.0 488.0 862.5 499.0Q898.0 510.0 936.0 510.0Q990.0 510.0 1034.0 489.5Q1078.0 469.0 1104.5 427.0Q1131.0 385.0 1131.0 320.0V0.0H1051.0V292.0Q1051.0 375.0 1015.5 407.5Q980.0 440.0 928.0 440.0Q892.0 440.0 856.0 423.0Q820.0 406.0 796.5 368.0Q773.0 330.0 773.0 266.0V0.0Z M1388.0 730.0V127.0Q1388.0 89.0 1402.0 74.5Q1416.0 60.0 1447.0 60.0Q1467.0 60.0 1480.0 63.0Q1493.0 66.0 1515.0 74.0L1502.0 4.0Q1486.0 -3.0 1467.0 -6.5Q1448.0 -10.0 1428.0 -10.0Q1367.0 -10.0 1337.5 23.0Q1308.0 56.0 1308.0 124.0V730.0Z M1910.0 323.0Q1910.0 379.0 1880.0 409.5Q1850.0 440.0 1795.0 440.0Q1743.0 440.0 1707.0 417.5Q1671.0 395.0 1654.0 345.0L1589.0 385.0Q1609.0 441.0 1663.0 475.5Q1717.0 510.0 1797.0 510.0Q1851.0 510.0 1895.0 491.5Q1939.0 473.0 1964.5 435.5Q1990.0 398.0 1990.0 339.0V97.0Q1990.0 61.0 2028.0 61.0Q2047.0 61.0 2065.0 66.0L2061.0 3.0Q2041.0 -7.0 2009.0 -7.0Q1980.0 -7.0 1957.0 4.0Q1934.0 15.0 1921.0 37.5Q1908.0 60.0 1908.0 94.0V104.0L1928.0 101.0Q1916.0 62.0 1887.0 37.5Q1858.0 13.0 1822.0 1.5Q1786.0 -10.0 1751.0 -10.0Q1707.0 -10.0 1669.0 5.0Q1631.0 20.0 1608.5 50.5Q1586.0 81.0 1586.0 126.0Q1586.0 182.0 1623.5 218.5Q1661.0 255.0 1728.0 268.0L1926.0 307.0V241.0L1765.0 208.0Q1716.0 198.0 1692.0 180.0Q1668.0 162.0 1668.0 130.0Q1668.0 99.0 1692.5 79.5Q1717.0 60.0 1762.0 60.0Q1791.0 60.0 1817.5 67.5Q1844.0 75.0 1865.0 90.5Q1886.0 106.0 1898.0 129.5Q1910.0 153.0 1910.0 185.0Z M2184.0 0.0V500.0H2249.0L2260.0 418.0Q2281.0 464.0 2321.5 487.0Q2362.0 510.0 2420.0 510.0Q2433.0 510.0 2448.5 508.0Q2464.0 506.0 2475.0 500.0L2461.0 427.0Q2450.0 431.0 2437.0 433.0Q2424.0 435.0 2400.0 435.0Q2369.0 435.0 2337.5 417.0Q2306.0 399.0 2285.0 362.5Q2264.0 326.0 2264.0 270.0V0.0Z M2870.0 323.0Q2870.0 379.0 2840.0 409.5Q2810.0 440.0 2755.0 440.0Q2703.0 440.0 2667.0 417.5Q2631.0 395.0 2614.0 345.0L2549.0 385.0Q2569.0 441.0 2623.0 475.5Q2677.0 510.0 2757.0 510.0Q2811.0 510.0 2855.0 491.5Q2899.0 473.0 2924.5 435.5Q2950.0 398.0 2950.0 339.0V97.0Q2950.0 61.0 2988.0 61.0Q3007.0 61.0 3025.0 66.0L3021.0 3.0Q3001.0 -7.0 2969.0 -7.0Q2940.0 -7.0 2917.0 4.0Q2894.0 15.0 2881.0 37.5Q2868.0 60.0 2868.0 94.0V104.0L2888.0 101.0Q2876.0 62.0 2847.0 37.5Q2818.0 13.0 2782.0 1.5Q2746.0 -10.0 2711.0 -10.0Q2667.0 -10.0 2629.0 5.0Q2591.0 20.0 2568.5 50.5Q2546.0 81.0 2546.0 126.0Q2546.0 182.0 2583.5 218.5Q2621.0 255.0 2688.0 268.0L2886.0 307.0V241.0L2725.0 208.0Q2676.0 198.0 2652.0 180.0Q2628.0 162.0 2628.0 130.0Q2628.0 99.0 2652.5 79.5Q2677.0 60.0 2722.0 60.0Q2751.0 60.0 2777.5 67.5Q2804.0 75.0 2825.0 90.5Q2846.0 106.0 2858.0 129.5Q2870.0 153.0 2870.0 185.0Z M3883.0 592.0 3901.0 521.0Q3900.0 521.0 3898.0 521.0Q3896.0 521.0 3894.0 521.0Q3845.0 521.0 3818.5 501.5Q3792.0 482.0 3792.0 439.0L3743.0 464.0Q3743.0 503.0 3761.0 532.0Q3779.0 561.0 3810.0 576.5Q3841.0 592.0 3878.0 592.0Q3879.0 592.0 3880.5 592.0Q3882.0 592.0 3883.0 592.0ZM3731.0 64.0Q3802.0 64.0 3842.0 31.5Q3882.0 -1.0 3882.0 -55.0Q3882.0 -104.0 3849.5 -140.0Q3817.0 -176.0 3762.5 -195.5Q3708.0 -215.0 3640.0 -215.0Q3522.0 -215.0 3463.5 -175.0Q3405.0 -135.0 3405.0 -79.0Q3405.0 -39.0 3431.5 -7.5Q3458.0 24.0 3521.0 28.0L3514.0 13.0Q3480.0 22.0 3456.5 43.5Q3433.0 65.0 3433.0 106.0Q3433.0 147.0 3463.5 176.5Q3494.0 206.0 3554.0 213.0L3607.0 186.0H3597.0Q3548.0 181.0 3527.5 161.5Q3507.0 142.0 3507.0 119.0Q3507.0 91.0 3527.5 77.5Q3548.0 64.0 3585.0 64.0ZM3639.0 -148.0Q3697.0 -148.0 3734.5 -136.0Q3772.0 -124.0 3790.0 -105.0Q3808.0 -86.0 3808.0 -64.0Q3808.0 -37.0 3786.5 -21.0Q3765.0 -5.0 3709.0 -5.0H3555.0Q3523.0 -5.0 3501.0 -21.5Q3479.0 -38.0 3479.0 -67.0Q3479.0 -104.0 3521.5 -126.0Q3564.0 -148.0 3639.0 -148.0ZM3632.0 510.0Q3692.0 510.0 3738.5 488.5Q3785.0 467.0 3811.0 429.0Q3837.0 391.0 3837.0 341.0Q3837.0 292.0 3811.0 253.5Q3785.0 215.0 3738.5 193.5Q3692.0 172.0 3632.0 172.0Q3533.0 172.0 3480.0 219.5Q3427.0 267.0 3427.0 341.0Q3427.0 391.0 3453.5 429.0Q3480.0 467.0 3526.0 488.5Q3572.0 510.0 3632.0 510.0ZM3632.0 445.0Q3580.0 445.0 3545.0 416.5Q3510.0 388.0 3510.0 341.0Q3510.0 295.0 3545.0 266.0Q3580.0 237.0 3632.0 237.0Q3684.0 237.0 3719.0 266.0Q3754.0 295.0 3754.0 341.0Q3754.0 388.0 3719.0 416.5Q3684.0 445.0 3632.0 445.0Z M4201.0 510.0Q4272.0 510.0 4326.5 479.0Q4381.0 448.0 4412.0 389.5Q4443.0 331.0 4443.0 250.0Q4443.0 169.0 4412.0 110.5Q4381.0 52.0 4326.5 21.0Q4272.0 -10.0 4201.0 -10.0Q4131.0 -10.0 4076.0 21.0Q4021.0 52.0 3990.0 110.5Q3959.0 169.0 3959.0 250.0Q3959.0 331.0 3990.0 389.5Q4021.0 448.0 4076.0 479.0Q4131.0 510.0 4201.0 510.0ZM4201.0 441.0Q4150.0 441.0 4114.0 418.0Q4078.0 395.0 4058.5 352.5Q4039.0 310.0 4039.0 250.0Q4039.0 191.0 4058.5 148.0Q4078.0 105.0 4114.0 82.0Q4150.0 59.0 4201.0 59.0Q4252.0 59.0 4288.0 82.0Q4324.0 105.0 4343.5 148.0Q4363.0 191.0 4363.0 250.0Q4363.0 310.0 4343.5 352.5Q4324.0 395.0 4288.0 418.0Q4252.0 441.0 4201.0 441.0ZM4104.0 696.0Q4130.0 696.0 4145.5 680.5Q4161.0 665.0 4161.0 639.0Q4161.0 614.0 4145.5 598.0Q4130.0 582.0 4104.0 582.0Q4079.0 582.0 4063.0 598.0Q4047.0 614.0 4047.0 639.0Q4047.0 665.0 4063.0 680.5Q4079.0 696.0 4104.0 696.0ZM4298.0 696.0Q4324.0 696.0 4339.5 680.5Q4355.0 665.0 4355.0 639.0Q4355.0 614.0 4339.5 598.0Q4324.0 582.0 4298.0 582.0Q4273.0 582.0 4257.0 598.0Q4241.0 614.0 4241.0 639.0Q4241.0 665.0 4257.0 680.5Q4273.0 696.0 4298.0 696.0Z M4550.0 0.0V61.0L4812.0 368.0L4875.0 433.0L4786.0 431.0H4553.0V500.0H4964.0V439.0L4702.0 132.0L4640.0 67.0L4737.0 69.0H4972.0V0.0Z M5900.0 500.0 5684.0 284.0 5665.0 265.0 5501.0 101.0V201.0L5799.0 500.0ZM5541.0 730.0V0.0H5461.0V730.0ZM5691.0 325.0 5912.0 0.0H5815.0L5624.0 280.0Z M6209.0 -10.0Q6161.0 -10.0 6118.5 8.0Q6076.0 26.0 6049.5 66.5Q6023.0 107.0 6023.0 172.0V500.0H6103.0V193.0Q6103.0 117.0 6136.0 88.5Q6169.0 60.0 6229.0 60.0Q6257.0 60.0 6284.0 69.5Q6311.0 79.0 6332.5 99.5Q6354.0 120.0 6366.5 152.0Q6379.0 184.0 6379.0 228.0V500.0H6459.0V0.0H6389.0L6384.0 76.0Q6358.0 31.0 6313.5 10.5Q6269.0 -10.0 6209.0 -10.0Z M6721.0 730.0V127.0Q6721.0 89.0 6735.0 74.5Q6749.0 60.0 6780.0 60.0Q6800.0 60.0 6813.0 63.0Q6826.0 66.0 6848.0 74.0L6835.0 4.0Q6819.0 -3.0 6800.0 -6.5Q6781.0 -10.0 6761.0 -10.0Q6700.0 -10.0 6670.5 23.0Q6641.0 56.0 6641.0 124.0V730.0Z M7243.0 323.0Q7243.0 379.0 7213.0 409.5Q7183.0 440.0 7128.0 440.0Q7076.0 440.0 7040.0 417.5Q7004.0 395.0 6987.0 345.0L6922.0 385.0Q6942.0 441.0 6996.0 475.5Q7050.0 510.0 7130.0 510.0Q7184.0 510.0 7228.0 491.5Q7272.0 473.0 7297.5 435.5Q7323.0 398.0 7323.0 339.0V97.0Q7323.0 61.0 7361.0 61.0Q7380.0 61.0 7398.0 66.0L7394.0 3.0Q7374.0 -7.0 7342.0 -7.0Q7313.0 -7.0 7290.0 4.0Q7267.0 15.0 7254.0 37.5Q7241.0 60.0 7241.0 94.0V104.0L7261.0 101.0Q7249.0 62.0 7220.0 37.5Q7191.0 13.0 7155.0 1.5Q7119.0 -10.0 7084.0 -10.0Q7040.0 -10.0 7002.0 5.0Q6964.0 20.0 6941.5 50.5Q6919.0 81.0 6919.0 126.0Q6919.0 182.0 6956.5 218.5Q6994.0 255.0 7061.0 268.0L7259.0 307.0V241.0L7098.0 208.0Q7049.0 198.0 7025.0 180.0Q7001.0 162.0 7001.0 130.0Q7001.0 99.0 7025.5 79.5Q7050.0 60.0 7095.0 60.0Q7124.0 60.0 7150.5 67.5Q7177.0 75.0 7198.0 90.5Q7219.0 106.0 7231.0 129.5Q7243.0 153.0 7243.0 185.0Z M7956.0 500.0 7740.0 284.0 7721.0 265.0 7557.0 101.0V201.0L7855.0 500.0ZM7597.0 730.0V0.0H7517.0V730.0ZM7747.0 325.0 7968.0 0.0H7871.0L7680.0 280.0Z M8610.0 510.0Q8681.0 510.0 8735.5 479.0Q8790.0 448.0 8821.0 389.5Q8852.0 331.0 8852.0 250.0Q8852.0 169.0 8821.0 110.5Q8790.0 52.0 8735.5 21.0Q8681.0 -10.0 8610.0 -10.0Q8540.0 -10.0 8485.0 21.0Q8430.0 52.0 8399.0 110.5Q8368.0 169.0 8368.0 250.0Q8368.0 331.0 8399.0 389.5Q8430.0 448.0 8485.0 479.0Q8540.0 510.0 8610.0 510.0ZM8610.0 441.0Q8559.0 441.0 8523.0 418.0Q8487.0 395.0 8467.5 352.5Q8448.0 310.0 8448.0 250.0Q8448.0 191.0 8467.5 148.0Q8487.0 105.0 8523.0 82.0Q8559.0 59.0 8610.0 59.0Q8661.0 59.0 8697.0 82.0Q8733.0 105.0 8752.5 148.0Q8772.0 191.0 8772.0 250.0Q8772.0 310.0 8752.5 352.5Q8733.0 395.0 8697.0 418.0Q8661.0 441.0 8610.0 441.0Z M9079.0 730.0V127.0Q9079.0 89.0 9093.0 74.5Q9107.0 60.0 9138.0 60.0Q9158.0 60.0 9171.0 63.0Q9184.0 66.0 9206.0 74.0L9193.0 4.0Q9177.0 -3.0 9158.0 -6.5Q9139.0 -10.0 9119.0 -10.0Q9058.0 -10.0 9028.5 23.0Q8999.0 56.0 8999.0 124.0V730.0Z M9349.0 120.0Q9378.0 120.0 9396.0 102.0Q9414.0 84.0 9414.0 55.0Q9414.0 26.0 9396.0 8.0Q9378.0 -10.0 9349.0 -10.0Q9320.0 -10.0 9302.0 8.0Q9284.0 26.0 9284.0 55.0Q9284.0 84.0 9302.0 102.0Q9320.0 120.0 9349.0 120.0Z"/></g></g>
</svg>
